<?xml version="1.0" encoding="UTF-8"?> <!-- Generator: Adobe Illustrator 16.0.0, SVG Export Plug-In . SVG Version: 6.00 Build 0) --> <svg xmlns="http://www.w3.org/2000/svg" xmlns:xlink="http://www.w3.org/1999/xlink" version="1.1" id="Layer_1" x="0px" y="0px" width="554px" height="550px" viewBox="0 0 554 550" xml:space="preserve"> <polygon fill="#FFFFFF" points="403.825,491.646 153.055,491.927 27.425,274.897 152.564,57.584 403.333,57.303 528.965,274.333 "></polygon> <polygon fill="none" stroke="#000000" stroke-width="5" stroke-miterlimit="10" points="403.825,491.646 153.055,491.927 27.425,274.897 152.564,57.584 403.333,57.303 528.965,274.333 "></polygon> <line fill="#FFFFFF" x1="152.585" y1="57.581" x2="495.674" y2="399.999"></line> <line fill="none" stroke="#000000" stroke-width="4" stroke-miterlimit="10" x1="152.585" y1="57.581" x2="495.674" y2="399.999"></line> <line fill="#FFFFFF" x1="403.108" y1="57.44" x2="61.327" y2="399.999"></line> <line fill="none" stroke="#000000" stroke-width="4" stroke-miterlimit="10" x1="403.108" y1="57.44" x2="61.327" y2="399.999"></line> <line fill="#FFFFFF" x1="403.578" y1="491.787" x2="61.328" y2="149.23"></line> <line fill="none" stroke="#000000" stroke-width="4" stroke-miterlimit="10" x1="403.578" y1="491.787" x2="61.328" y2="149.23"></line> <line fill="#FFFFFF" x1="495.674" y1="149.23" x2="153.056" y2="491.927"></line> <line fill="none" stroke="#000000" stroke-width="4" stroke-miterlimit="10" x1="495.674" y1="149.23" x2="153.056" y2="491.927"></line> <line fill="#FFFFFF" x1="495.674" y1="149.23" x2="27.425" y2="274.897"></line> <line fill="none" stroke="#000000" stroke-width="4" stroke-miterlimit="10" x1="495.674" y1="149.23" x2="27.425" y2="274.897"></line> <line fill="#FFFFFF" x1="528.965" y1="274.332" x2="61.328" y2="149.23"></line> <line fill="none" stroke="#000000" stroke-width="4" stroke-miterlimit="10" x1="528.965" y1="274.332" x2="61.328" y2="149.23"></line> <polygon fill="#FFFFFF" points="495.674,399.999 278.5,525.383 61.328,399.999 61.328,149.23 278.5,23.847 495.674,149.23 "></polygon> <polygon fill="none" stroke="#000000" stroke-width="10" stroke-miterlimit="10" points="495.674,399.999 278.5,525.383 61.328,399.999 61.328,149.23 278.5,23.847 495.674,149.23 "></polygon> <rect x="147.009" y="127.482" width="29.584" height="113.518"></rect> <polygon points="239.37,214.341 286.325,214.341 286.325,241 209.787,241 209.787,127.482 239.37,127.482 "></polygon> <g> <defs> <rect id="SVGID_1_" width="554" height="550"></rect> </defs> <clipPath id="SVGID_2_"> <use xlink:href="#SVGID_1_" overflow="visible"></use> </clipPath> <path clip-path="url(#SVGID_2_)" d="M415.839,184.241c0,33.539-27.52,58.823-61.403,58.823c-33.883,0-61.059-25.284-61.059-58.823 c0-33.368,27.176-58.823,61.059-58.823C388.319,125.418,415.839,150.873,415.839,184.241 M323.648,184.241 c0,19.264,12.728,31.647,30.959,31.647c17.544,0,30.96-12.383,30.96-31.647c0-18.92-13.416-31.647-30.96-31.647 C336.376,152.594,323.648,165.321,323.648,184.241"></path> <polygon clip-path="url(#SVGID_2_)" points="178.14,377 134.969,320.413 134.969,377 105.386,377 105.386,263.482 134.969,263.482 134.969,314.909 172.464,263.482 206.864,263.482 167.82,317.489 213.227,377 "></polygon> <rect x="235.416" y="263.482" clip-path="url(#SVGID_2_)" width="29.584" height="113.518"></rect> <polygon clip-path="url(#SVGID_2_)" points="399.844,263.482 348.245,379.064 338.785,379.064 287.186,263.482 320.726,263.482 343.601,319.209 366.305,263.482 "></polygon> <rect x="422.032" y="263.482" clip-path="url(#SVGID_2_)" width="29.584" height="113.518"></rect> <path clip-path="url(#SVGID_2_)" d="M209.416,437.797h-13.75c0.216,3.419,2.556,5.543,6.083,5.543c2.196,0,3.852-0.828,5.4-2.124 l1.403,1.872c-1.871,1.764-4.355,2.808-7.055,2.808c-5.075,0-8.711-3.636-8.711-8.423c0-5.219,4.284-9.539,9.503-9.539 c4.32,0,7.559,2.951,7.559,7.271C209.847,436.32,209.631,437.185,209.416,437.797 M195.881,435.349h11.123 c0.036-0.108,0.036-0.216,0.036-0.323c0-2.99-2.124-4.573-4.896-4.573C199.121,430.452,196.637,432.396,195.881,435.349"></path> <path clip-path="url(#SVGID_2_)" d="M230.08,430.957l-1.944,1.584c-1.008-1.296-2.375-2.088-4.175-2.088 c-1.62,0-2.952,0.648-2.952,2.088c0,1.044,0.756,1.656,2.412,2.52l1.512,0.792c2.807,1.403,4.103,2.628,4.103,4.896 c0,3.492-3.096,5.184-6.335,5.184c-3.419,0-5.651-1.836-6.911-3.852l2.016-1.656c1.259,1.62,2.555,2.952,4.895,2.952 c1.908,0,3.492-0.899,3.492-2.483c0-1.297-1.08-1.873-2.736-2.736l-1.584-0.791c-2.304-1.188-3.708-2.448-3.708-4.645 c0-3.131,2.736-4.822,6.012-4.822C226.949,427.898,228.856,429.121,230.08,430.957"></path> <path clip-path="url(#SVGID_2_)" d="M241.061,439.776c-0.072,0.36-0.108,0.647-0.108,0.972c0,2.16,1.691,2.664,3.923,2.664 c0.612,0,1.008-0.036,1.656-0.072l-0.432,2.375c-0.612,0.108-1.224,0.181-2.016,0.181c-2.951,0-5.903-1.044-5.903-4.751 c0-0.396,0.036-0.864,0.144-1.404l1.584-8.963h-2.915l0.359-2.484h2.988l0.9-5.111h2.772l-0.9,5.111h5.471l-0.432,2.484h-5.471 L241.061,439.776z"></path> <path clip-path="url(#SVGID_2_)" d="M258.197,443.628c0,1.331-1.044,2.268-2.268,2.268s-2.268-0.937-2.268-2.268 c0-1.332,1.044-2.269,2.268-2.269S258.197,442.296,258.197,443.628"></path> <polygon clip-path="url(#SVGID_2_)" points="289.229,443.052 294.34,443.052 293.908,445.5 280.553,445.5 280.985,443.052 286.42,443.052 288.977,428.869 283.865,428.869 284.297,426.314 292.18,426.314 "></polygon> <path clip-path="url(#SVGID_2_)" d="M318.099,433.549c0,3.35-1.979,5.543-4.14,8.172l-6.768,8.136h-3.562l7.272-8.532 c-0.542,0.18-1.118,0.252-1.802,0.252c-4.031,0-7.271-3.132-7.271-7.379c0-4.716,3.96-8.279,8.531-8.279 C314.715,425.918,318.099,429.121,318.099,433.549 M315.255,433.585c0-2.952-1.979-5.111-4.968-5.111 c-3.131,0-5.615,2.376-5.615,5.688c0,2.915,2.016,5.039,5.004,5.039C312.844,439.2,315.255,436.789,315.255,433.585"></path> <path clip-path="url(#SVGID_2_)" d="M340.814,437.58c0,4.716-3.924,8.279-8.495,8.279c-4.355,0-7.774-3.203-7.774-7.631 c0-3.348,2.016-5.58,4.139-8.171l6.911-8.315h3.6l-7.415,8.711c0.504-0.18,1.08-0.252,1.764-0.252 C337.574,430.201,340.814,433.333,340.814,437.58 M337.971,437.617c0-2.916-1.98-5.04-4.967-5.04c-3.168,0-5.616,2.411-5.616,5.651 c0,2.916,2.017,5.076,5.003,5.076C335.486,443.305,337.971,440.928,337.971,437.617"></path> <polygon clip-path="url(#SVGID_2_)" points="363.854,445.5 360.398,445.5 359.643,449.855 356.87,449.855 357.627,445.5 345.676,445.5 345.82,444.672 356.654,426.314 359.643,426.314 349.707,443.052 358.059,443.052 359.462,435.061 362.234,435.061 360.83,443.052 364.249,443.052 "></polygon> </g> </svg> 