<svg id="Layer_1" data-name="Layer 1" xmlns="http://www.w3.org/2000/svg" viewBox="0 0 158.81 120.49"><title>semma_logo__main</title><path d="M127.79,134.56H105.43l-8.29-12.09,8.55-5.87,5.21,7.58h10.84l2.67-4.72L83.26,81.89V79.6a21.4,21.4,0,0,1,3-11,33.66,33.66,0,0,1,57.17-.85A25.41,25.41,0,0,1,146.49,76a31.76,31.76,0,0,1,.48,6.3v.18H136.59v-.34a20.63,20.63,0,0,0-.29-4.21,15.58,15.58,0,0,0-1.61-4.54,23.17,23.17,0,0,0-19.59-10.7A23.41,23.41,0,0,0,95.14,74a10.55,10.55,0,0,0-1.31,3.54l43.67,39.88Z" transform="translate(-83.26 -52.29)" style="fill:#383b42"/><path d="M116.69,172.79a13,13,0,1,1,13-13A13,13,0,0,1,116.69,172.79Zm0-18.76a5.75,5.75,0,1,0,5.75,5.75A5.76,5.76,0,0,0,116.69,154Z" transform="translate(-83.26 -52.29)" style="fill:#383b42"/><polygon points="66.83 67.56 78.56 67.56 78.56 60.8 66.83 60.8 66.83 54.61 80.45 54.61 80.45 47.52 58.8 47.52 58.8 82.27 80.97 82.27 80.97 75.17 66.83 75.17 66.83 67.56" style="fill:#383b42"/><path d="M185.46,114.08l-10-14.27H167.8v34.75h7.76v-14c0-2.7-.05-5.64-.09-7.83,1.69,2.52,3.21,4.73,4.63,6.75l5.17,7.34,5.18-7.34c1.41-2,2.93-4.22,4.62-6.75,0,2.21-.08,5.16-.08,7.83v14h8V99.81h-7.54Z" transform="translate(-83.26 -52.29)" style="fill:#383b42"/><path d="M185.46,152.31l-10-14.27H167.8v34.75h7.76v-14c0-2.7-.05-5.64-.09-7.83,1.69,2.52,3.21,4.73,4.63,6.75l5.17,7.34,5.18-7.34c1.41-2,2.93-4.22,4.62-6.75,0,2.21-.08,5.16-.08,7.83v14h8V138h-7.54Z" transform="translate(-83.26 -52.29)" style="fill:#383b42"/><path d="M228,138.2,228,138h-7.63l-14.11,34.75h8.27l2.79-7.19h13.45l2.74,7.19h8.6ZM227,155.69l1.29,3.48h-8.48l1.24-3.29c1-2.62,2.13-5.76,3-8.32C224.84,149.81,225.91,152.79,227,155.69Z" transform="translate(-83.26 -52.29)" style="fill:#383b42"/></svg>